{
    "asset" : {
        "generator" : "Khronos glTF Blender I/O v0.9.36",
        "version" : "2.0"
    },
    "scene" : 0,
    "scenes" : [
        {
            "name" : "Scene",
            "nodes" : [
                0,
                1,
                2,
                3
            ]
        }
    ],
    "nodes" : [
        {
            "name" : "Light",
            "rotation" : [
                -0.011410120874643326,
                0.8627862334251404,
                -0.15607458353042603,
                0.4807395040988922
            ],
            "scale" : [
                149.4846954345703,
                149.4846954345703,
                149.4846954345703
            ],
            "translation" : [
                -0.40413331985473633,
                7.48821496963501,
                2.293875217437744
            ]
        },
        {
            "name" : "Camera",
            "rotation" : [
                0.3051213026046753,
                0.43420442938804626,
                -0.21025672554969788,
                0.8210722208023071
            ],
            "scale" : [
                4.096882343292236,
                1.9301180839538574,
                2.1885063648223877
            ],
            "translation" : [
                31.95610237121582,
                37.41082763671875,
                16.325767517089844
            ]
        },
        {
            "mesh" : 0,
            "name" : "wall",
            "translation" : [
                -0.13001501560211182,
                0.18024736642837524,
                1.0474426746368408
            ]
        },
        {
            "mesh" : 1,
            "name" : "floor",
            "translation" : [
                -3.7240419387817383,
                0.16580259799957275,
                1.511417031288147
            ]
        }
    ],
    "materials" : [
        {
            "doubleSided" : true,
            "name" : "Material.009",
            "pbrMetallicRoughness" : {}
        },
        {
            "alphaCutoff" : 0.5,
            "alphaMode" : "MASK",
            "doubleSided" : true,
            "name" : "Material.011",
            "pbrMetallicRoughness" : {}
        },
        {
            "doubleSided" : true,
            "name" : "Material.012",
            "pbrMetallicRoughness" : {}
        },
        {
            "doubleSided" : true,
            "name" : "Material.013",
            "pbrMetallicRoughness" : {}
        },
        {
            "doubleSided" : true,
            "name" : "Material.014",
            "pbrMetallicRoughness" : {}
        },
        {
            "doubleSided" : true,
            "name" : "Material.015",
            "pbrMetallicRoughness" : {}
        },
        {
            "doubleSided" : true,
            "name" : "Material.016",
            "pbrMetallicRoughness" : {}
        }
    ],
    "meshes" : [
        {
            "name" : "Plane.001",
            "primitives" : [
                {
                    "attributes" : {
                        "POSITION" : 0,
                        "NORMAL" : 1,
                        "TEXCOORD_0" : 2
                    },
                    "indices" : 3,
                    "material" : 0
                },
                {
                    "attributes" : {
                        "POSITION" : 4,
                        "NORMAL" : 5,
                        "TEXCOORD_0" : 6
                    },
                    "indices" : 7,
                    "material" : 1
                },
                {
                    "attributes" : {
                        "POSITION" : 8,
                        "NORMAL" : 9,
                        "TEXCOORD_0" : 10
                    },
                    "indices" : 11,
                    "material" : 2
                },
                {
                    "attributes" : {
                        "POSITION" : 12,
                        "NORMAL" : 13,
                        "TEXCOORD_0" : 14
                    },
                    "indices" : 15,
                    "material" : 3
                },
                {
                    "attributes" : {
                        "POSITION" : 16,
                        "NORMAL" : 17,
                        "TEXCOORD_0" : 18
                    },
                    "indices" : 19,
                    "material" : 4
                },
                {
                    "attributes" : {
                        "POSITION" : 20,
                        "NORMAL" : 21,
                        "TEXCOORD_0" : 22
                    },
                    "indices" : 23,
                    "material" : 5
                }
            ]
        },
        {
            "name" : "Plane.003",
            "primitives" : [
                {
                    "attributes" : {
                        "POSITION" : 24,
                        "NORMAL" : 25,
                        "TEXCOORD_0" : 26
                    },
                    "indices" : 27,
                    "material" : 6
                }
            ]
        }
    ],
    "accessors" : [
        {
            "bufferView" : 0,
            "componentType" : 5126,
            "count" : 1248,
            "max" : [
                9.354496955871582,
                3.6052048206329346,
                6.190045356750488
            ],
            "min" : [
                -9.783951759338379,
                0,
                -3.5574851036071777
            ],
            "type" : "VEC3"
        },
        {
            "bufferView" : 1,
            "componentType" : 5126,
            "count" : 1248,
            "type" : "VEC3"
        },
        {
            "bufferView" : 2,
            "componentType" : 5126,
            "count" : 1248,
            "type" : "VEC2"
        },
        {
            "bufferView" : 3,
            "componentType" : 5123,
            "count" : 2508,
            "type" : "SCALAR"
        },
        {
            "bufferView" : 4,
            "componentType" : 5126,
            "count" : 88,
            "max" : [
                9.171485900878906,
                3.6052048206329346,
                2.2976527214050293
            ],
            "min" : [
                -9.609294891357422,
                0,
                -0.852074146270752
            ],
            "type" : "VEC3"
        },
        {
            "bufferView" : 5,
            "componentType" : 5126,
            "count" : 88,
            "type" : "VEC3"
        },
        {
            "bufferView" : 6,
            "componentType" : 5126,
            "count" : 88,
            "type" : "VEC2"
        },
        {
            "bufferView" : 7,
            "componentType" : 5123,
            "count" : 144,
            "type" : "SCALAR"
        },
        {
            "bufferView" : 8,
            "componentType" : 5126,
            "count" : 287,
            "max" : [
                4.813963413238525,
                3.6052048206329346,
                6.036126136779785
            ],
            "min" : [
                -5.353487014770508,
                0,
                -3.380786180496216
            ],
            "type" : "VEC3"
        },
        {
            "bufferView" : 9,
            "componentType" : 5126,
            "count" : 287,
            "type" : "VEC3"
        },
        {
            "bufferView" : 10,
            "componentType" : 5126,
            "count" : 287,
            "type" : "VEC2"
        },
        {
            "bufferView" : 11,
            "componentType" : 5123,
            "count" : 516,
            "type" : "SCALAR"
        },
        {
            "bufferView" : 12,
            "componentType" : 5126,
            "count" : 295,
            "max" : [
                9.172017097473145,
                3.6052048206329346,
                6.035042762756348
            ],
            "min" : [
                -9.609294891357422,
                0,
                -3.3806207180023193
            ],
            "type" : "VEC3"
        },
        {
            "bufferView" : 13,
            "componentType" : 5126,
            "count" : 295,
            "type" : "VEC3"
        },
        {
            "bufferView" : 14,
            "componentType" : 5126,
            "count" : 295,
            "type" : "VEC2"
        },
        {
            "bufferView" : 15,
            "componentType" : 5123,
            "count" : 588,
            "type" : "SCALAR"
        },
        {
            "bufferView" : 16,
            "componentType" : 5126,
            "count" : 140,
            "max" : [
                4.815520763397217,
                3.6052048206329346,
                6.035913944244385
            ],
            "min" : [
                -5.0083513259887695,
                0,
                -3.380695104598999
            ],
            "type" : "VEC3"
        },
        {
            "bufferView" : 17,
            "componentType" : 5126,
            "count" : 140,
            "type" : "VEC3"
        },
        {
            "bufferView" : 18,
            "componentType" : 5126,
            "count" : 140,
            "type" : "VEC2"
        },
        {
            "bufferView" : 19,
            "componentType" : 5123,
            "count" : 240,
            "type" : "SCALAR"
        },
        {
            "bufferView" : 20,
            "componentType" : 5126,
            "count" : 85,
            "max" : [
                9.173542976379395,
                3.6052048206329346,
                -0.9611750245094299
            ],
            "min" : [
                3.8436203002929688,
                0,
                -3.3808493614196777
            ],
            "type" : "VEC3"
        },
        {
            "bufferView" : 21,
            "componentType" : 5126,
            "count" : 85,
            "type" : "VEC3"
        },
        {
            "bufferView" : 22,
            "componentType" : 5126,
            "count" : 85,
            "type" : "VEC2"
        },
        {
            "bufferView" : 23,
            "componentType" : 5123,
            "count" : 156,
            "type" : "SCALAR"
        },
        {
            "bufferView" : 24,
            "componentType" : 5126,
            "count" : 4,
            "max" : [
                12.914387702941895,
                0.019841497763991356,
                5.694455623626709
            ],
            "min" : [
                -6.157423973083496,
                0.019841497763991356,
                -3.983983278274536
            ],
            "type" : "VEC3"
        },
        {
            "bufferView" : 25,
            "componentType" : 5126,
            "count" : 4,
            "type" : "VEC3"
        },
        {
            "bufferView" : 26,
            "componentType" : 5126,
            "count" : 4,
            "type" : "VEC2"
        },
        {
            "bufferView" : 27,
            "componentType" : 5123,
            "count" : 6,
            "type" : "SCALAR"
        }
    ],
    "bufferViews" : [
        {
            "buffer" : 0,
            "byteLength" : 14976,
            "byteOffset" : 0
        },
        {
            "buffer" : 0,
            "byteLength" : 14976,
            "byteOffset" : 14976
        },
        {
            "buffer" : 0,
            "byteLength" : 9984,
            "byteOffset" : 29952
        },
        {
            "buffer" : 0,
            "byteLength" : 5016,
            "byteOffset" : 39936
        },
        {
            "buffer" : 0,
            "byteLength" : 1056,
            "byteOffset" : 44952
        },
        {
            "buffer" : 0,
            "byteLength" : 1056,
            "byteOffset" : 46008
        },
        {
            "buffer" : 0,
            "byteLength" : 704,
            "byteOffset" : 47064
        },
        {
            "buffer" : 0,
            "byteLength" : 288,
            "byteOffset" : 47768
        },
        {
            "buffer" : 0,
            "byteLength" : 3444,
            "byteOffset" : 48056
        },
        {
            "buffer" : 0,
            "byteLength" : 3444,
            "byteOffset" : 51500
        },
        {
            "buffer" : 0,
            "byteLength" : 2296,
            "byteOffset" : 54944
        },
        {
            "buffer" : 0,
            "byteLength" : 1032,
            "byteOffset" : 57240
        },
        {
            "buffer" : 0,
            "byteLength" : 3540,
            "byteOffset" : 58272
        },
        {
            "buffer" : 0,
            "byteLength" : 3540,
            "byteOffset" : 61812
        },
        {
            "buffer" : 0,
            "byteLength" : 2360,
            "byteOffset" : 65352
        },
        {
            "buffer" : 0,
            "byteLength" : 1176,
            "byteOffset" : 67712
        },
        {
            "buffer" : 0,
            "byteLength" : 1680,
            "byteOffset" : 68888
        },
        {
            "buffer" : 0,
            "byteLength" : 1680,
            "byteOffset" : 70568
        },
        {
            "buffer" : 0,
            "byteLength" : 1120,
            "byteOffset" : 72248
        },
        {
            "buffer" : 0,
            "byteLength" : 480,
            "byteOffset" : 73368
        },
        {
            "buffer" : 0,
            "byteLength" : 1020,
            "byteOffset" : 73848
        },
        {
            "buffer" : 0,
            "byteLength" : 1020,
            "byteOffset" : 74868
        },
        {
            "buffer" : 0,
            "byteLength" : 680,
            "byteOffset" : 75888
        },
        {
            "buffer" : 0,
            "byteLength" : 312,
            "byteOffset" : 76568
        },
        {
            "buffer" : 0,
            "byteLength" : 48,
            "byteOffset" : 76880
        },
        {
            "buffer" : 0,
            "byteLength" : 48,
            "byteOffset" : 76928
        },
        {
            "buffer" : 0,
            "byteLength" : 32,
            "byteOffset" : 76976
        },
        {
            "buffer" : 0,
            "byteLength" : 12,
            "byteOffset" : 77008
        }
    ],
    "buffers" : [
        {
            "byteLength" : 77020,
            "uri" : "data:application/octet-stream;base64,"
        }
    ]
}
